#N canvas 996 351 542 646 12;
#X obj 203 403 *~;
#X obj 108 474 cos~;
#X obj 108 447 +~;
#X text 112 67 carrier;
#X text 203 53 mod 1;
#X text 363 237 index1;
#X obj 108 552 outlet~;
#X obj 107 85 pack 0 50;
#X obj 107 108 line;
#X obj 203 31 r \$1-m1;
#X obj 307 238 r \$1-i1;
#X obj 141 207 t b f;
#X obj 107 27 r \$1-cr;
#X obj 107 51 nbx 5 14 0 15 0 1 empty empty empty 0 -8 0 10 -262144
-1 -1 1 256;
#X obj 203 52 nbx 5 14 0 15 0 1 empty empty empty 0 -8 0 10 -262144
-1 -1 0.22 256;
#X obj 141 182 nbx 5 14 -1e+37 1e+37 0 1 empty empty empty 0 -8 0 10
-262144 -1 -1 70 256;
#X obj 108 374 nbx 5 14 -1e+37 1e+37 0 0 empty empty empty 0 -8 0 10
-262144 -1 -1 70 256;
#X obj 107 275 *;
#X obj 141 108 r \$1-f;
#X obj 141 132 nbx 5 14 -1e+37 1e+37 0 1 empty empty empty 0 -8 0 10
-262144 -1 -1 0.07 256;
#X obj 108 393 phasor~;
#X obj 108 502 +~;
#X obj 203 282 phasor~;
#X obj 203 354 cos~;
#X obj 141 156 * 1000;
#X obj 203 74 sig~;
#X obj 221 231 sig~;
#X obj 203 259 *~;
#X obj 238 378 sig~;
#X obj 212 157 +~ 1;
#X obj 308 285 + 1;
#X obj 108 524 *~ 0.5;
#X obj 147 468 r vol-\$1;
#X connect 0 0 2 1;
#X connect 1 0 21 0;
#X connect 2 0 1 0;
#X connect 7 0 8 0;
#X connect 8 0 17 0;
#X connect 9 0 14 0;
#X connect 10 0 30 0;
#X connect 11 0 17 0;
#X connect 11 1 17 1;
#X connect 11 1 26 0;
#X connect 12 0 13 0;
#X connect 13 0 8 0;
#X connect 14 0 25 0;
#X connect 15 0 11 0;
#X connect 16 0 20 0;
#X connect 17 0 16 0;
#X connect 18 0 19 0;
#X connect 19 0 24 0;
#X connect 20 0 2 0;
#X connect 21 0 31 0;
#X connect 22 0 23 0;
#X connect 23 0 0 0;
#X connect 24 0 15 0;
#X connect 24 0 20 1;
#X connect 25 0 29 0;
#X connect 26 0 27 1;
#X connect 27 0 22 0;
#X connect 28 0 0 1;
#X connect 29 0 27 0;
#X connect 30 0 28 0;
#X connect 31 0 6 0;
#X connect 32 0 31 1;
