#N canvas 634 299 1065 599 12;
#X obj 290 52 +~;
#X obj 386 55 +~;
#X obj 273 292 dac~;
#X obj 12 10 sensors;
#X obj 258 8 2opFM 1;
#X obj 316 8 2opFM 2;
#X obj 386 9 2opFM 3;
#X obj 442 9 2opFM 4;
#X obj 119 425 loadbang;
#X msg 119 447 \; 1-f 0.07 \; 2-f 0.08 \; 3-f 0.1 \; 4-f 0.12 \;;
#X obj 13 35 gui;
#X obj 306 187 rev2~ 100 90 3000 20;
#X obj 290 79 *~ 0.33;
#X obj 379 86 *~ 0.33;
#X connect 0 0 12 0;
#X connect 1 0 13 0;
#X connect 4 0 0 0;
#X connect 5 0 0 1;
#X connect 6 0 1 0;
#X connect 7 0 1 1;
#X connect 8 0 9 0;
#X connect 11 0 2 0;
#X connect 11 1 2 1;
#X connect 12 0 11 0;
#X connect 12 0 2 0;
#X connect 13 0 11 0;
#X connect 13 0 2 1;
