#N canvas 922 225 826 657 12;
#X obj 153 150 s bela_setGui;
#X obj 162 25 bng 15 250 50 0 empty empty empty 17 7 0 10 -262144 -1
-1;
#X obj 163 7 loadbang;
#X obj 115 193 r bela_guiControl;
#X obj 43 267 s vol-1;
#X obj 103 297 s vol-2;
#X obj 178 265 s vol-3;
#X obj 238 295 s vol-4;
#X obj 115 227 route v1 v2 v3 v4;
#X msg 51 57 new control v1;
#X msg 48 105 new control v2;
#X msg 190 54 new control v3;
#X msg 160 84 new control v4;
#X connect 1 0 9 0;
#X connect 1 0 11 0;
#X connect 1 0 10 0;
#X connect 1 0 12 0;
#X connect 2 0 1 0;
#X connect 3 0 8 0;
#X connect 8 0 4 0;
#X connect 8 1 5 0;
#X connect 8 2 6 0;
#X connect 8 3 7 0;
#X connect 9 0 0 0;
#X connect 10 0 0 0;
#X connect 11 0 0 0;
#X connect 12 0 0 0;
