#N canvas 379 240 570 557 12;
#X obj 295 228 r b-19;
#X obj 379 228 r b-21;
#X obj 119 229 r b-15;
#X obj 119 300 r b-16;
#X obj 212 227 r b-17;
#X obj 119 275 print 15;
#X obj 119 348 print 16;
#X obj 212 274 print 17;
#X obj 295 275 print 19;
#X obj 379 275 print 21;
#X obj 119 252 list;
#X obj 212 250 list;
#X obj 295 252 list;
#X obj 379 251 list;
#X obj 120 325 list;
#X obj 32 204 s metro;
#X obj 64 229 r metro;
#X obj 200 205 r metro;
#X obj 288 206 r metro;
#X obj 372 204 r metro;
#X obj 62 299 r metro;
#X obj 231 324 list;
#X obj 173 298 r metro;
#X obj 230 299 r b-18;
#X obj 230 347 print 18;
#X obj 332 325 list;
#X obj 274 299 r metro;
#X obj 440 326 list;
#X obj 382 300 r metro;
#X obj 331 300 r b-20;
#X obj 331 348 print 20;
#X obj 439 301 r b-21;
#X obj 439 349 print 21;
#X obj 33 171 metro 500;
#X connect 0 0 12 1;
#X connect 1 0 13 0;
#X connect 2 0 10 1;
#X connect 3 0 14 1;
#X connect 4 0 11 0;
#X connect 10 0 5 0;
#X connect 11 0 7 0;
#X connect 12 0 8 0;
#X connect 13 0 9 0;
#X connect 14 0 6 0;
#X connect 16 0 10 0;
#X connect 17 0 11 0;
#X connect 18 0 12 0;
#X connect 19 0 13 0;
#X connect 20 0 14 0;
#X connect 21 0 24 0;
#X connect 22 0 21 0;
#X connect 23 0 21 1;
#X connect 25 0 30 0;
#X connect 26 0 25 0;
#X connect 27 0 32 0;
#X connect 28 0 27 0;
#X connect 29 0 25 1;
#X connect 31 0 27 1;
