#N canvas 554 249 918 658 12;
#N canvas 1036 499 756 553 trill-destinations 0;
#X obj 316 10 r b-19;
#X obj 316 56 r b-20;
#X obj 384 10 r b-21;
#X obj 385 57 r b-22;
#X obj 171 9 r b-15;
#X obj 171 56 r b-16;
#X obj 248 8 r b-17;
#X obj 249 56 r b-18;
#X obj 171 31 s 1-i1;
#X obj 171 79 s 1-m1;
#X obj 248 31 s 2-i1;
#X obj 249 79 s 2-m1;
#X obj 316 33 s 3-i1;
#X obj 317 79 s 3-m1;
#X obj 384 33 s 4-i1;
#X obj 385 79 s 4-m1;
#X connect 0 0 12 0;
#X connect 1 0 13 0;
#X connect 2 0 14 0;
#X connect 3 0 15 0;
#X connect 4 0 8 0;
#X connect 5 0 9 0;
#X connect 6 0 10 0;
#X connect 7 0 11 0;
#X restore 674 5 pd trill-destinations;
#X obj 345 8 loadbang;
#X obj 205 93 s bela_setTrill;
#X text 170 27 Initialise Trill sensor;
#X obj 345 117 s bela_setTrill;
#X text 490 88 [prescaler <sensor_id> <value>(;
#X text 494 109 value betwen 1 and 6;
#X text 490 66 Change sensitivity here;
#X obj 345 29 t b b;
#X msg 205 65 new mycraft 1 CRAFT;
#X obj 393 31 r trill-sensitivity;
#N canvas 328 322 1297 539 trill-router 0;
#X obj 218 12 r bela_trill;
#X text 326 39 We are working with Trill Craft;
#X text 326 13 This receives readings from the Trill sensor;
#X obj 30 45 loadbang;
#X obj 30 66 metro 50;
#X msg 30 87 0;
#X obj 30 129 s bela_guiOut;
#X obj 30 108 list;
#X obj 218 39 route mycraft;
#X obj 409 158 s b-6;
#X obj 210 133 s b-0;
#X obj 252 133 s b-1;
#X obj 295 133 s b-2;
#X obj 338 133 s b-3;
#X obj 380 133 s b-4;
#X obj 423 133 s b-5;
#X obj 450 158 s b-7;
#X obj 491 158 s b-8;
#X obj 532 158 s b-9;
#X obj 574 158 s b-10;
#X obj 623 158 s b-11;
#X obj 608 184 s b-12;
#X obj 657 184 s b-13;
#X obj 707 184 s b-14;
#X obj 758 184 s b-15;
#X obj 808 184 s b-16;
#X obj 856 184 s b-17;
#X obj 807 160 s b-18;
#X obj 855 160 s b-19;
#X obj 904 160 s b-20;
#X obj 953 160 s b-21;
#X obj 1003 160 s b-22;
#X obj 989 130 s b-23;
#X obj 1038 130 s b-24;
#X obj 1086 130 s b-25;
#X obj 1136 130 s b-26;
#X obj 1185 130 s b-27;
#X obj 1233 130 s b-28;
#X obj 217 100 unpack f f f f f f f f f f f f f f f f f f f f f f f
f f f f f f f, f 133;
#X obj 1160 99 s b-28;
#X connect 0 0 8 0;
#X connect 3 0 4 0;
#X connect 4 0 5 0;
#X connect 5 0 7 0;
#X connect 7 0 6 0;
#X connect 8 0 38 0;
#X connect 38 0 10 0;
#X connect 38 1 11 0;
#X connect 38 2 12 0;
#X connect 38 3 13 0;
#X connect 38 4 14 0;
#X connect 38 5 15 0;
#X connect 38 6 9 0;
#X connect 38 7 16 0;
#X connect 38 8 17 0;
#X connect 38 9 18 0;
#X connect 38 10 19 0;
#X connect 38 11 20 0;
#X connect 38 12 21 0;
#X connect 38 13 22 0;
#X connect 38 14 23 0;
#X connect 38 15 24 0;
#X connect 38 16 25 0;
#X connect 38 17 26 0;
#X connect 38 18 27 0;
#X connect 38 19 28 0;
#X connect 38 20 29 0;
#X connect 38 21 30 0;
#X connect 38 22 31 0;
#X connect 38 23 32 0;
#X connect 38 24 33 0;
#X connect 38 25 34 0;
#X connect 38 26 35 0;
#X connect 38 27 36 0;
#X connect 38 28 37 0;
#X connect 38 29 39 0;
#X restore 560 6 pd trill-router;
#X msg 345 89 prescaler mycraft 2;
#X connect 1 0 8 0;
#X connect 8 0 12 0;
#X connect 8 1 9 0;
#X connect 9 0 2 0;
#X connect 10 0 12 0;
#X connect 12 0 4 0;
